<?xml version="1.0" encoding="UTF-8"?>
<svg id="Layer_1" data-name="Layer 1" xmlns="http://www.w3.org/2000/svg" viewBox="0 0 1057.173828125 270.2249755859">
  <g>
    <path d="M6.5250205994,227.9249420166l39.6000137329,39.6000213623c1.7999725342,1.799987793,3.6000137329,2.700012207,5.3999862671,2.700012207s3.6000137329-.8999938965,5.3999862671-2.700012207c23.3999900818-23.3999938965,54.8999900818-36,86.3999900818-36s62.1000213623,11.7000274658,86.3999786377,36c1.7999725342,1.799987793,3.6000061035,2.700012207,5.3999938965,2.700012207s3.6000061035-.8999938965,5.3999938965-2.700012207l39.6000061035-39.6000061035c5.3999938965-5.3999938965,5.3999938965-14.3999938965,0-19.7999725342l-95.3999938965-91.7999725342c-11.7000274658-11.7000274658-27-18-43.2000274658-18-15.2999725342,0-31.5,6.2999725342-43.2000274658,18L6.5250205994,209.0249633789c-5.3999862671,5.3999938965-5.3999862671,13.5,0,18.8999938965v-.0000152588Z" style="fill: #eb001a; stroke-width: 0px;"/>
    <path d="M64.125038147,118.1249771118l18.8999862671-18.8999862671c16.2000274658-16.2000274658,36.8999862671-24.2999725342,59.3999938965-24.2999725342,22.5,0,43.2000274658,9,59.3999938965,24.2999725342l18.8999938965,18.8999862671,62.1000061035-62.1000137329c2.700012207-2.7000274658,2.700012207-8.1000137329,0-10.7999725342L238.7249755859,2.0249948502c-2.7000274658-2.6999931335-8.1000061035-2.6999931335-10.7999725342,0-47.7000274658,47.6999921799-124.2000274658,47.6999921799-171.8999938965,0-2.7000274658-2.6999931335-8.1000137329-2.6999931335-10.7999725342,0L2.0250205994,45.22498703c-2.7000274658,2.7000274658-2.7000274658,8.1000137329,0,10.7999725342l62.1000175476,62.1000175476Z" style="fill: #f58f8f; stroke-width: 0px;"/>
  </g>
  <g>
    <path d="M375.3046875,191.80859375l34.0078125-55.2236328125-34.4755859375-53.9765625h21.5278320312l24.9599609375,39.15625,22.9321289062-39.15625h21.0600585938l-33.8520507812,54.7568359375,34.6318359375,54.443359375h-21.5278320312l-25.1162109375-39.6240234375-23.087890625,39.6240234375h-21.0600585938Z" style="fill: #1e1c22; stroke-width: 0px;"/>
    <path d="M478.4194335938,191.80859375v-109.2001953125h22.30859375l34.787109375,70.5126953125,34.7895507812-70.5126953125h22.306640625v109.2001953125h-18.71875v-77.0639648438l-31.044921875,61.7758789062h-14.8208007812l-30.88671875-61.6201171875v76.908203125h-18.720703125Z" style="fill: #1e1c22; stroke-width: 0px;"/>
    <path d="M699.6240234375,193.6806640625c-10.8173828125,0-20.150390625-2.3642578125-28.001953125-7.09765625-7.853515625-4.7314453125-13.859375-11.3349609375-18.017578125-19.8125-4.1611328125-8.474609375-6.240234375-18.2763671875-6.240234375-29.4052734375,0-11.232421875,2.0791015625-21.0849609375,6.240234375-29.5625,4.158203125-8.4750976562,10.1640625-15.10546875,18.017578125-19.8901367188,7.8515625-4.7822265625,17.1845703125-7.17578125,28.001953125-7.17578125,12.9990234375,0,23.607421875,3.1977539062,31.82421875,9.59375,8.21484375,6.3959960938,13.416015625,15.4194335938,15.599609375,27.0659179688h-20.591796875c-1.3525390625-6.1352539062-4.31640625-10.9711914062-8.8916015625-14.5078125-4.578125-3.5346679688-10.6083984375-5.3041992188-18.0966796875-5.3041992188-6.86328125,0-12.767578125,1.5869140625-17.705078125,4.7583007812-4.94140625,3.1733398438-8.736328125,7.7485351562-11.388671875,13.7280273438-2.6513671875,5.9814453125-3.9775390625,13.0795898438-3.9775390625,21.2944335938,0,8.216796875,1.326171875,15.263671875,3.9775390625,21.1376953125,2.65234375,5.876953125,6.447265625,10.400390625,11.388671875,13.572265625,4.9375,3.1728515625,10.841796875,4.7578125,17.705078125,4.7578125,7.48828125,0,13.494140625-1.6376953125,18.0185546875-4.9140625,4.5234375-3.2763671875,7.5126953125-7.82421875,8.9697265625-13.650390625h20.591796875c-2.18359375,11.025390625-7.384765625,19.6826171875-15.599609375,25.974609375-8.216796875,6.29296875-18.8251953125,9.4375-31.82421875,9.4375Z" style="fill: #1e1c22; stroke-width: 0px;"/>
    <path d="M760.931640625,191.80859375v-112.3198242188h18.7197265625v112.3198242188h-18.7197265625Z" style="fill: #1e1c22; stroke-width: 0px;"/>
    <path d="M833.16015625,193.6806640625c-7.48828125,0-14.22265625-1.7158203125-20.2021484375-5.1474609375-5.9814453125-3.4326171875-10.662109375-8.2685546875-14.0400390625-14.5087890625-3.380859375-6.2392578125-5.0703125-13.3623046875-5.0703125-21.37109375,0-8.21484375,1.7158203125-15.4443359375,5.1484375-21.6845703125,3.431640625-6.240234375,8.1357421875-11.076171875,14.1181640625-14.5083007812,5.978515625-3.431640625,12.7138671875-5.1479492188,20.201171875-5.1479492188,7.48828125,0,14.1962890625,1.7163085938,20.1240234375,5.1479492188,5.9287109375,3.4321289062,10.6328125,8.2436523438,14.1181640625,14.4301757812,3.4833984375,6.189453125,5.2265625,13.3916015625,5.2265625,21.6064453125,0,8.111328125-1.76953125,15.2880859375-5.3046875,21.52734375-3.5361328125,6.240234375-8.267578125,11.076171875-14.1953125,14.5087890625-5.9287109375,3.431640625-12.63671875,5.1474609375-20.1240234375,5.1474609375ZM833.16015625,177.61328125c3.744140625,0,7.1484375-.9609375,10.2177734375-2.88671875,3.06640625-1.9228515625,5.5380859375-4.7578125,7.41015625-8.501953125s2.8076171875-8.3193359375,2.8076171875-13.7275390625c0-5.51171875-.9111328125-10.140625-2.7294921875-13.8837890625-1.8212890625-3.7446289062-4.265625-6.552734375-7.33203125-8.4248046875-3.0693359375-1.8720703125-6.4228515625-2.8081054688-10.0625-2.8081054688-3.744140625,0-7.17578125.9360351562-10.2958984375,2.8081054688s-5.6162109375,4.6801757812-7.48828125,8.4248046875c-1.8720703125,3.7431640625-2.8076171875,8.3720703125-2.8076171875,13.8837890625,0,5.408203125.935546875,9.9833984375,2.8076171875,13.7275390625s4.341796875,6.5791015625,7.41015625,8.501953125c3.06640625,1.92578125,6.4208984375,2.88671875,10.0625,2.88671875Z" style="fill: #1e1c22; stroke-width: 0px;"/>
    <path d="M916.150390625,193.6806640625c-6.240234375,0-11.6220703125-1.2744140625-16.146484375-3.822265625-4.5234375-2.546875-7.982421875-6.3955078125-10.3740234375-11.5439453125-2.3935546875-5.1474609375-3.587890625-11.4658203125-3.587890625-18.9541015625v-46.17578125h18.720703125v44.1484375c0,6.76171875,1.427734375,11.8828125,4.2900390625,15.3662109375,2.8583984375,3.4853515625,7.2001953125,5.2255859375,13.025390625,5.2255859375,3.6396484375,0,6.9423828125-.9091796875,9.90625-2.7294921875,2.9638671875-1.8193359375,5.3037109375-4.3681640625,7.01953125-7.64453125,1.716796875-3.2763671875,2.57421875-7.3564453125,2.57421875-12.24609375v-42.1201171875h18.720703125v78.6240234375h-16.5361328125l-1.404296875-13.103515625c-2.2890625,4.5771484375-5.6943359375,8.216796875-10.2177734375,10.919921875-4.5244140625,2.703125-9.85546875,4.0556640625-15.990234375,4.0556640625Z" style="fill: #1e1c22; stroke-width: 0px;"/>
    <path d="M1012.08984375,193.6806640625c-7.28125,0-13.7548828125-1.7939453125-19.421875-5.3818359375-5.669921875-3.587890625-10.0888671875-8.4755859375-13.2607421875-14.6640625-3.1728515625-6.1865234375-4.7578125-13.2333984375-4.7578125-21.1376953125,0-8.0078125,1.611328125-15.10546875,4.8359375-21.2944335938,3.22265625-6.1865234375,7.72265625-11.0493164062,13.494140625-14.5859375,5.7724609375-3.5346679688,12.296875-5.3041992188,19.578125-5.3041992188,5.8232421875,0,10.9443359375,1.119140625,15.3662109375,3.3540039062,4.4189453125,2.2377929688,7.9287109375,5.3823242188,10.529296875,9.4379882812v-44.6157226562h18.720703125v112.3198242188h-16.6923828125l-1.8720703125-11.5439453125c-1.6650390625,2.49609375-3.6923828125,4.7333984375-6.083984375,6.7080078125-2.3935546875,1.9765625-5.279296875,3.587890625-8.658203125,4.8359375-3.380859375,1.248046875-7.3076171875,1.8720703125-11.77734375,1.8720703125ZM1016.1455078125,177.45703125c4.5751953125,0,8.5537109375-1.0654296875,11.9345703125-3.1982421875,3.3779296875-2.1298828125,5.978515625-5.0703125,7.7998046875-8.8134765625,1.818359375-3.744140625,2.7294921875-8.05859375,2.7294921875-12.9482421875,0-4.8876953125-.9111328125-9.2041015625-2.7294921875-12.9482421875-1.8212890625-3.744140625-4.421875-6.681640625-7.7998046875-8.814453125-3.380859375-2.1303710938-7.359375-3.1977539062-11.9345703125-3.1977539062-4.265625,0-8.1123046875,1.041015625-11.5439453125,3.1201171875-3.431640625,2.0815429688-6.083984375,5.0185546875-7.9560546875,8.8139648438-1.8720703125,3.7978515625-2.8076171875,8.138671875-2.8076171875,13.0263671875,0,4.9921875.935546875,9.3349609375,2.8076171875,13.025390625,1.8720703125,3.693359375,4.5244140625,6.6064453125,7.9560546875,8.736328125,3.431640625,2.1328125,7.2783203125,3.1982421875,11.5439453125,3.1982421875Z" style="fill: #1e1c22; stroke-width: 0px;"/>
  </g>
</svg>